<svg xmlns="http://www.w3.org/2000/svg" width="600" height="300" viewBox="0 0 600 300" fill="none">
  <rect width="600" height="300" rx="12" fill="#f4ecdf"/>
  <rect x="4" y="4" width="592" height="292" rx="10" fill="#fbf7ef" stroke="#ded3c4" stroke-width="1"/>
  <!-- Abstract map lines -->
  <path d="M0 180 Q100 160 200 170 Q300 180 400 165 Q500 150 600 170" stroke="#ded3c4" stroke-width="1" fill="none"/>
  <path d="M0 200 Q150 190 250 195 Q350 200 450 188 Q550 176 600 190" stroke="#ded3c4" stroke-width="1" fill="none"/>
  <path d="M0 220 Q120 230 220 220 Q320 210 420 225 Q520 240 600 220" stroke="#ded3c4" stroke-width="1" fill="none"/>
  <!-- Road cross -->
  <line x1="250" y1="80" x2="350" y2="260" stroke="#ded3c4" stroke-width="2" opacity="0.5"/>
  <line x1="150" y1="190" x2="480" y2="160" stroke="#ded3c4" stroke-width="2" opacity="0.5"/>
  <!-- Location pin -->
  <g transform="translate(300,140)">
    <path d="M0-35 C-15-35 -24-22 -24-10 C-24 8 0 30 0 30 C0 30 24 8 24-10 C24-22 15-35 0-35Z" fill="#a7684d" opacity="0.85"/>
    <circle cx="0" cy="-12" r="8" fill="#fbf7ef"/>
  </g>
  <!-- Practice label -->
  <rect x="190" y="60" width="220" height="44" rx="6" fill="#fbf7ef" stroke="#ded3c4" stroke-width="1"/>
  <rect x="198" y="68" width="28" height="28" rx="5" fill="#a7684d"/>
  <text x="212" y="87" text-anchor="middle" font-family="Georgia, serif" font-size="13" fill="#fbf7ef" font-weight="700">A</text>
  <text x="240" y="82" font-family="Georgia, serif" font-size="11" fill="#4b3346" font-weight="600">Aster Private Health</text>
  <text x="240" y="96" font-family="Arial, sans-serif" font-size="9" fill="#746f66" letter-spacing="1">TEMECULA, CA</text>
  <!-- Surrounding area hints -->
  <circle cx="420" cy="120" r="3" fill="#879782" opacity="0.3"/>
  <circle cx="180" cy="230" r="3" fill="#879782" opacity="0.3"/>
  <circle cx="450" cy="220" r="2" fill="#879782" opacity="0.25"/>
  <circle cx="140" cy="140" r="2" fill="#879782" opacity="0.25"/>
</svg>
